PathFileType	4	(X/Y/Z)	s09c0103.trc
DataRate	CameraRate	NumFrames	NumMarkers	Units	OrigDataRate	OrigDataStartFrame	OrigNumFrames
200	200	4	50	mm	200	250	2000
Frame#	Time	racr			lacr			c7			jug			rlel			rdr			llel			ldr			s2			lic			ric			lasi			rasi			rpsi			lpsi			rgt			lgt			rth1			rth2			rth3			rth4			rlfc			rmfc			rsh1			rsh2			rsh3			rsh4			rlmal			rmmal			rcal			rtoe			rmt5			lth1			lth2			lth4			lth3			llfc			lmfc			llmal			lmmal			lcal			lmt5			lsh1			lsh2			lsh3			lsh4			ltoe			SBIKE			LBIKE			RBIKE			
		X1	Y1	Z1	X2	Y2	Z2	X3	Y3	Z3	X4	Y4	Z4	X5	Y5	Z5	X6	Y6	Z6	X7	Y7	Z7	X8	Y8	Z8	X9	Y9	Z9	X10	Y10	Z10	X11	Y11	Z11	X12	Y12	Z12	X13	Y13	Z13	X14	Y14	Z14	X15	Y15	Z15	X16	Y16	Z16	X17	Y17	Z17	X18	Y18	Z18	X19	Y19	Z19	X20	Y20	Z20	X21	Y21	Z21	X22	Y22	Z22	X23	Y23	Z23	X24	Y24	Z24	X25	Y25	Z25	X26	Y26	Z26	X27	Y27	Z27	X28	Y28	Z28	X29	Y29	Z29	X30	Y30	Z30	X31	Y31	Z31	X32	Y32	Z32	X33	Y33	Z33	X34	Y34	Z34	X35	Y35	Z35	X36	Y36	Z36	X37	Y37	Z37	X38	Y38	Z38	X39	Y39	Z39	X40	Y40	Z40	X41	Y41	Z41	X42	Y42	Z42	X43	Y43	Z43	X44	Y44	Z44	X45	Y45	Z45	X46	Y46	Z46	X47	Y47	Z47	X48	Y48	Z48	X49	Y49	Z49	X50	Y50	Z50	
250	1.2500	478.332796	1264.091500	-49.506028	534.651417	1262.554036	-349.533189	467.957702	1302.030747	-203.712506	470.071059	1164.668496	-207.559091	458.634706	1005.853401	3.621955	680.872478	889.423423	-47.339889	516.491139	1039.686976	-517.724022	693.183179	875.017873	-450.811186	-6.764496	1129.117467	-249.300091	132.841878	1116.949280	-393.302018	132.271587	1131.848556	-94.679232	170.344849	1059.409311	-368.641002	180.433054	1082.121996	-114.369574	18.041299	1160.654869	-188.295362	24.769467	1163.428214	-299.251365	119.024598	998.803362	-51.521651	96.989904	986.135430	-429.041836	237.983747	926.871404	-59.886510	321.310335	901.255642	-68.880755	377.035536	833.049270	-77.722484	338.172007	926.229802	-90.125430	448.727735	756.505835	-111.120801	433.012045	734.168941	-206.849567	409.589549	659.768028	-75.671178	407.782805	571.182638	-89.977829	363.688034	495.758634	-85.668580	430.595393	567.462998	-122.364679	339.079921	395.415946	-82.109133	333.291537	408.405907	-160.202127	264.237643	337.191531	-118.163164	523.122915	407.283885	-127.837397	451.351998	366.507843	-60.702221	195.465143	890.202478	-430.934892	267.238758	845.438706	-424.613540	294.507113	869.013956	-413.283854	309.357565	765.540227	-423.005462	344.705634	670.973328	-412.937211	358.713101	654.241701	-314.983148	93.373785	406.826377	-401.384378	118.499734	403.387794	-332.035506	23.301523	411.356665	-360.184981	131.797093	279.208351	-427.885296	277.918698	596.785350	-430.717157	237.248706	521.331470	-416.785867	161.295918	475.299887	-411.412996	258.090946	507.029138	-386.095902	219.476699	238.273389	-365.168021	-64.641216	851.355487	-240.808885	21.127361	83.875008	-442.278658	21.278956	83.922053	-43.909236	
251	1.2550	480.574707	1264.382968	-48.568707	533.442721	1263.474281	-348.711684	468.564088	1302.574497	-202.231562	470.329041	1165.193064	-206.646787	460.652128	1007.042729	7.435665	681.036573	889.264826	-46.202385	514.251684	1039.153640	-515.709343	693.311871	876.320025	-450.068821	-6.714993	1130.114674	-246.095801	132.090782	1119.579486	-390.236022	132.627293	1130.926243	-91.346180	169.794266	1061.660698	-366.264123	180.741312	1081.266849	-111.641084	19.969512	1159.728977	-185.709558	26.086952	1164.022665	-295.675270	118.520377	997.854213	-49.469708	96.852102	989.512584	-426.930031	236.585499	924.547285	-58.101384	319.609798	897.911051	-67.023117	374.557504	829.068371	-76.012470	336.814225	922.835334	-88.189027	445.418696	751.720032	-109.482645	430.772051	729.246189	-205.288870	406.703584	654.443262	-74.295628	406.264696	565.641955	-88.899185	363.394405	489.777450	-85.127585	430.456620	562.554496	-119.809141	340.083735	388.994755	-81.949035	335.035929	400.395201	-161.938556	265.263536	330.947096	-118.424947	524.653411	400.625047	-127.694371	453.220978	360.775179	-59.593269	196.590873	893.802081	-429.282908	268.625543	849.456302	-422.950129	295.670952	873.142192	-411.347688	311.186625	769.744527	-421.764519	347.096401	675.160002	-412.194786	360.623155	658.281457	-314.187507	92.896693	413.496442	-401.318619	118.587236	409.167987	-331.861841	22.820122	418.362077	-360.082020	130.633615	285.695299	-427.852824	279.691181	601.507158	-430.124898	238.228029	526.377014	-416.303962	161.688219	481.311817	-411.077568	258.839895	511.884221	-385.642014	218.151136	244.301027	-365.173255	-64.580259	851.381219	-240.595768	21.114771	83.913058	-442.270783	21.283726	83.922383	-43.887223	
252	1.2600	482.903460	1264.669997	-47.764078	532.239026	1264.474986	-347.882813	469.203030	1303.134776	-200.839684	470.546886	1165.693908	-205.922292	462.980357	1008.226685	11.220597	681.287358	888.983996	-44.999766	511.840715	1038.624247	-512.892652	692.904661	877.032576	-448.906526	-6.630028	1129.659078	-247.287570	131.482380	1122.185243	-387.186364	133.136796	1130.086381	-88.044286	169.370929	1063.895143	-363.819685	181.072575	1080.408992	-108.980101	20.278510	1161.096676	-180.986013	26.028390	1165.573125	-291.502918	118.024672	996.838741	-47.632281	96.941028	993.013856	-424.802549	235.276686	922.081702	-56.421577	317.947684	894.537291	-65.219138	371.917766	824.991821	-74.559657	335.516609	919.227565	-86.328730	442.015715	746.746361	-107.929152	432.006271	725.063297	-204.040694	404.019837	648.966942	-73.033873	404.886375	560.173458	-87.801279	363.094519	483.738227	-84.584331	429.597014	557.435720	-118.379530	340.931799	382.613670	-81.757901	336.057908	394.248968	-161.640724	266.218691	324.657154	-118.688734	526.035369	393.720317	-127.584708	454.442200	354.000315	-59.533441	197.827509	897.453066	-427.663195	270.110876	853.563365	-421.348222	296.922311	877.366650	-409.453761	313.201513	774.109768	-420.583076	349.666982	679.516569	-411.409681	362.770855	661.943185	-313.352964	92.769199	420.234626	-401.321243	118.449671	415.714094	-331.766336	22.635400	425.517752	-360.051836	129.764106	292.229363	-427.737602	281.739859	606.251952	-429.600451	239.429179	531.573289	-415.861555	162.376584	487.336138	-410.811687	259.852516	516.918167	-385.188079	216.974772	250.324341	-365.054486	-64.512542	851.417930	-240.357860	21.111371	83.990344	-442.256610	21.286989	83.906685	-43.885604	
253	1.2650	485.342551	1264.930859	-47.036122	530.967089	1265.441925	-347.144304	469.803278	1303.689827	-199.550648	470.871678	1166.257693	-205.219246	465.525860	1009.615379	15.073757	681.693847	888.778927	-43.901254	508.947722	1038.187024	-509.679606	692.500377	877.738026	-448.034590	-6.217271	1132.392902	-237.105830	130.909639	1124.792504	-384.062499	133.898066	1129.258509	-84.169272	169.045581	1066.127581	-361.343688	181.387519	1079.692247	-106.431596	20.996757	1160.482353	-177.818241	25.989397	1167.127529	-287.257168	117.747625	995.821700	-45.730404	97.177730	996.527057	-422.690993	234.013171	919.580017	-54.783591	316.348599	890.894636	-63.627293	369.271434	820.620826	-73.251708	334.297783	915.337133	-84.557133	438.658917	741.630059	-106.540528	426.604813	717.645684	-203.063689	401.409453	643.410759	-71.869793	403.941572	554.469509	-86.777538	362.811400	477.731532	-84.113022	428.023160	552.387621	-117.567511	341.696291	376.286032	-81.492158	336.801928	388.158414	-161.335982	267.069884	318.469765	-118.820217	527.282938	386.703796	-127.491700	455.608630	347.262441	-59.402484	199.146768	901.149546	-426.088940	271.691320	857.707502	-419.874268	298.308953	881.566784	-407.658575	315.340867	778.496282	-419.527214	352.410446	683.949131	-410.677675	365.521620	665.934136	-312.630551	92.975077	427.116046	-401.372345	118.527414	422.421840	-331.718322	22.848920	432.783480	-360.074594	129.214537	298.851653	-427.636902	283.995143	611.176712	-429.031926	240.766947	536.947871	-415.183734	163.422090	493.363137	-410.563262	261.812995	522.341542	-386.097631	216.129065	256.355508	-365.008559	-64.415042	851.446000	-240.080609	21.129768	84.107159	-442.276720	21.276985	83.928157	-43.877295	
